<svg width="395" height="43" viewBox="0 0 395 43" fill="none" xmlns="http://www.w3.org/2000/svg">
<path d="M0.00021814 0.62694H8.88496V25.7133H27.2816V33.5527H0.00021814V0.62694ZM33.022 0.62694H41.9067V33.5527H33.022V0.62694ZM59.2356 0.62694L72.0924 19.8598V0.62694H80.2454V33.5527H72.0924L57.3541 12.0726V33.5527H49.2011V0.62694H59.2356ZM120.299 33.5527H109.532L100.125 19.6507L96.4666 23.5705V33.5527H87.5818V0.62694H96.4666V13.954L109.167 0.62694H119.515L106.553 13.7973L120.299 33.5527ZM160.262 16.4627C164.757 17.0898 168.781 19.8075 168.781 24.5112C168.781 30.2079 164.286 33.5527 156.604 33.5527H138.416V0.62694H155.506C163.973 0.62694 167.788 4.18084 167.788 9.72073C167.788 13.3792 164.495 16.0446 160.262 16.4627ZM147.039 7.68247V13.9018H154.565C157.597 13.9018 158.799 12.4384 158.799 10.8705C158.799 9.14584 157.597 7.68247 154.565 7.68247H147.039ZM155.349 20.1211H147.039V26.4449H155.401C158.485 26.4449 159.844 25.0861 159.844 23.3092C159.844 21.5322 158.485 20.1211 155.349 20.1211ZM208.097 17.0898C208.097 27.2289 200.309 34.1799 190.745 34.1799C181.181 34.1799 173.394 27.2289 173.394 17.0898C173.394 6.95079 181.181 -0.00021582 190.745 -0.00021582C200.309 -0.00021582 208.097 6.95079 208.097 17.0898ZM198.951 17.0898C198.951 11.4977 195.606 7.83926 190.745 7.83926C185.885 7.83926 182.54 11.4977 182.54 17.0898C182.54 22.682 185.885 26.3404 190.745 26.3404C195.606 26.3404 198.951 22.682 198.951 17.0898ZM229.161 34.1799C220.694 34.1799 213.691 29.7375 213.691 20.1211V0.62694H222.524V18.6577C222.524 23.675 224.614 26.7063 229.161 26.7063C233.76 26.7063 235.799 23.675 235.799 18.6577V0.62694H244.683V20.1211C244.683 29.7375 237.628 34.1799 229.161 34.1799ZM272.731 42.542C267.348 42.542 264.159 39.563 264.159 33.8663C256.215 32.4029 250.257 25.9746 250.257 17.0898C250.257 6.95079 258.045 -0.00021582 267.609 -0.00021582C277.173 -0.00021582 284.96 6.95079 284.96 17.0898C284.96 25.7655 279.211 32.1416 271.581 33.7618C271.79 35.2774 272.887 36.2704 274.612 36.2704C275.971 36.2704 277.121 35.8523 278.271 34.9116L279.577 40.8696C277.8 41.9148 275.344 42.542 272.731 42.542ZM275.814 17.0898C275.814 11.4977 272.469 7.83926 267.609 7.83926C262.748 7.83926 259.404 11.4977 259.404 17.0898C259.404 22.682 262.748 26.3404 267.609 26.3404C272.469 26.3404 275.814 22.682 275.814 17.0898ZM306.025 34.1799C297.558 34.1799 290.555 29.7375 290.555 20.1211V0.62694H299.387V18.6577C299.387 23.675 301.478 26.7063 306.025 26.7063C310.624 26.7063 312.662 23.675 312.662 18.6577V0.62694H321.547V20.1211C321.547 29.7375 314.491 34.1799 306.025 34.1799ZM356.859 26.0268V33.5527H328.584V0.62694H356.388V8.15284H337.312V13.1178H351.528V20.5392H337.312V26.0268H356.859ZM382.43 33.5527H373.597V8.46642H361.263V0.62694H394.921V8.46642H382.43V33.5527Z" fill="#001AFF"/>
</svg>
